<svg width="109" height="38" viewBox="0 0 109 38" fill="none" xmlns="http://www.w3.org/2000/svg">
<path d="M10.7849 0.983997C14.3689 0.983997 17.0089 1.88 18.7049 3.672C20.4009 5.464 21.2489 8.008 21.2489 11.304V23.256C21.2489 27.352 19.7289 30.216 16.6889 31.848L22.2089 33.288L22.3049 37.08H21.3929L11.9849 33.528C11.7609 33.56 11.3769 33.576 10.8329 33.576C3.82494 33.576 0.320938 30.136 0.320938 23.256V11.304C0.320938 8.008 1.16894 5.464 2.86494 3.672C4.56094 1.88 7.20094 0.983997 10.7849 0.983997ZM10.7849 4.584C8.67294 4.584 7.07294 5.112 5.98494 6.168C4.92894 7.224 4.40094 8.776 4.40094 10.824V23.688C4.40094 25.736 4.94494 27.304 6.03294 28.392C7.12094 29.448 8.72094 29.976 10.8329 29.976C15.0569 29.976 17.1689 27.848 17.1689 23.592V10.872C17.1689 8.824 16.6249 7.272 15.5369 6.216C14.4809 5.128 12.8969 4.584 10.7849 4.584ZM38.2972 17.256V20.376H27.7372V17.256H38.2972ZM49.0784 1.56V29.4H61.5584V33H44.9984V1.56H49.0784ZM78.3187 1.56L87.9667 33H83.5507L81.4867 25.704H69.9187L67.8547 33H63.6787L73.2787 1.56H78.3187ZM75.7267 5.304L70.9267 22.056H80.4787L75.7267 5.304ZM108.405 1.56L99.2849 22.2V33H95.2049V22.2L86.0849 1.56H90.7409L97.2689 17.88L103.845 1.56H108.405Z" fill="#B30000"/>
</svg>
