<svg width="50" height="50" viewBox="0 0 50 50" fill="none" xmlns="http://www.w3.org/2000/svg">
<g clip-path="url(#clip0_556_25)">
<path d="M30.8718 6.98089C25.812 4.31295 19.7169 5.33305 15.7052 9.51918C11.0428 14.3842 10.5761 22.1417 14.6198 27.5636C14.7628 27.7553 14.9764 27.8556 15.1924 27.8556C15.348 27.8556 15.5048 27.8035 15.6371 27.696C15.9531 27.4394 16.0099 26.9642 15.7641 26.6345C12.1686 21.8137 12.5842 14.9155 16.7305 10.5889C20.2983 6.86586 25.7184 5.95855 30.2181 8.33108C30.5753 8.51971 31.0114 8.36989 31.192 7.99705C31.3725 7.62421 31.2293 7.16924 30.8718 6.98089Z" fill="white"/>
<path d="M36.6606 13.0224C36.48 12.6496 36.0442 12.5 35.6866 12.6882C35.3293 12.8766 35.1858 13.3314 35.3663 13.7045C37.6384 18.3991 36.7684 24.0541 33.2015 27.776C29.055 32.1026 22.4444 32.5361 17.8244 28.7845C17.5084 28.528 17.053 28.5872 16.8071 28.9168C16.5612 29.2465 16.6181 29.7218 16.9341 29.9784C19.3009 31.9004 22.132 32.8458 24.9541 32.8458C28.3275 32.8458 31.6881 31.4948 34.2268 28.8457C38.2375 24.6607 39.2156 18.3018 36.6606 13.0224Z" fill="white"/>
<path d="M34.7875 10.1414C34.6079 9.92934 34.4193 9.7199 34.2267 9.51909C34.0342 9.31818 33.8336 9.1213 33.6304 8.9339C33.3304 8.65715 32.8722 8.68677 32.6072 8.9998C32.3419 9.31274 32.3701 9.79077 32.6701 10.0674C32.8511 10.2343 33.0299 10.4098 33.2015 10.5888C33.3729 10.7678 33.5411 10.9543 33.7011 11.1432C33.8444 11.3123 34.044 11.3987 34.2446 11.3987C34.4152 11.3987 34.5865 11.3362 34.7244 11.209C35.0245 10.9325 35.0527 10.4544 34.7875 10.1414Z" fill="white"/>
<path d="M42.0764 20.5385C42.5598 19.7109 42.5598 18.6831 42.0762 17.8557L41.1226 16.2238C40.997 16.0087 40.9483 15.7534 40.9859 15.5047L41.2702 13.6201C41.4151 12.6596 41.0369 11.7078 40.2835 11.1358L38.8055 10.014C38.6101 9.86558 38.4712 9.64911 38.4143 9.40404L37.9839 7.54788C37.7654 6.60504 37.0683 5.87772 36.1648 5.64954L34.3859 5.20029C34.151 5.14094 33.9434 4.996 33.8014 4.7921L32.7261 3.24944C32.1781 2.46325 31.2658 2.06847 30.3456 2.21978L28.5388 2.51641C28.3006 2.5555 28.0557 2.50487 27.8498 2.37381L26.2856 1.37837C25.4927 0.873809 24.5076 0.873902 23.7147 1.37837L22.1507 2.37353C21.9447 2.50469 21.7001 2.55512 21.4616 2.51612L19.6553 2.2195C18.7352 2.06837 17.8228 2.46297 17.2747 3.24916L16.1997 4.79144C16.0574 4.99535 15.8499 5.14029 15.615 5.19963L13.8361 5.64879C12.9328 5.87679 12.2356 6.60419 12.0169 7.54695L11.5864 9.4032C11.5295 9.64826 11.3907 9.86492 11.1952 10.0131L9.7168 11.1351C8.96337 11.7069 8.58531 12.6587 8.73005 13.6191L9.01431 15.5046C9.05178 15.7533 9.00326 16.0086 8.87766 16.2235L7.92379 17.8558C7.44043 18.6832 7.44043 19.7111 7.92388 20.5385L8.87757 22.1705C9.00317 22.3855 9.05178 22.6409 9.01422 22.8895L8.72996 24.7743C8.58504 25.7347 8.96319 26.6866 9.71662 27.2585L11.1946 28.3803C11.3901 28.5285 11.529 28.7452 11.5858 28.9902L12.0163 30.8464C12.2348 31.7892 12.9319 32.5166 13.8353 32.7447L14.5782 32.9323L9.55104 44.6337C9.44422 44.8824 9.47378 45.1717 9.62858 45.3913C9.78329 45.6108 10.0391 45.7266 10.2985 45.6942L14.3435 45.1895L16.6737 48.6762C16.8101 48.8801 17.0326 48.9999 17.2681 48.9999C17.2906 48.9999 17.3135 48.9988 17.3361 48.9966C17.5961 48.9711 17.823 48.8015 17.9298 48.553L23.0639 36.6018L23.7145 37.0157C24.111 37.268 24.5554 37.3941 25 37.3941C25.4445 37.3941 25.889 37.2679 26.2855 37.0157L26.9595 36.5869L32.1001 48.553C32.2069 48.8017 32.4337 48.9711 32.6938 48.9966C32.7165 48.9989 32.7392 49 32.7618 49C32.9973 49 33.2199 48.8802 33.3562 48.6763L35.6864 45.1896L39.7313 45.6943C39.9906 45.7264 40.2466 45.6109 40.4013 45.3914C40.556 45.1718 40.5857 44.8825 40.4788 44.6338L35.4491 32.926L36.164 32.7455C37.0674 32.5175 37.7645 31.7901 37.9832 30.8473L38.4138 28.9911C38.4706 28.746 38.6095 28.5294 38.8049 28.3811L40.2833 27.2591C41.0368 26.6874 41.4148 25.7356 41.2701 24.7751L40.9858 22.8897C40.9483 22.641 40.9969 22.3856 41.1225 22.1708L42.0764 20.5385ZM17.1305 46.7151L15.2839 43.9519C15.1308 43.7228 14.869 43.6002 14.6032 43.6335L11.3977 44.0335L15.9778 33.3719C16.0616 33.4361 16.1367 33.5131 16.1986 33.6021L17.2738 35.1447C17.376 35.2913 17.4908 35.4241 17.616 35.5424L15.2052 41.154C15.0415 41.5353 15.2048 41.9828 15.5701 42.1537C15.6664 42.1988 15.7672 42.2201 15.8662 42.2201C16.1431 42.2201 16.4076 42.0536 16.5281 41.7729L18.9303 36.1813C19.1667 36.2151 19.4101 36.2145 19.6543 36.1744L21.4611 35.8778C21.5693 35.8601 21.6786 35.8617 21.7851 35.88L17.1305 46.7151ZM38.6323 44.0333L35.4267 43.6335C35.1607 43.6003 34.8992 43.7228 34.7461 43.9519L32.8994 46.7151L28.2429 35.8758C28.3405 35.8619 28.4402 35.8619 28.5387 35.8781L30.3449 36.1747C30.599 36.2164 30.8523 36.2151 31.0977 36.1769L33.5017 41.7731C33.6224 42.0539 33.8867 42.2203 34.1636 42.2203C34.2627 42.2203 34.3634 42.199 34.4596 42.1539C34.8249 41.9831 34.9884 41.5354 34.8246 41.1542L32.4046 35.5213C32.5213 35.4082 32.6292 35.283 32.7255 35.145L33.8005 33.6027C33.8683 33.5055 33.9513 33.4222 34.0446 33.3548L38.6323 44.0333ZM40.8385 19.7508L39.8846 21.3831C39.5805 21.9038 39.4628 22.5223 39.5536 23.1248L39.8379 25.0101C39.8976 25.4065 39.7415 25.7995 39.4305 26.0355L37.9521 27.1576C37.4788 27.5169 37.1423 28.0416 37.0046 28.6351L36.5741 30.4914C36.4838 30.8805 36.1961 31.1808 35.8231 31.275L34.0442 31.7242C33.4753 31.8678 32.9724 32.219 32.6281 32.7129L31.553 34.2552C31.3268 34.5798 30.9503 34.7426 30.5702 34.6801L28.764 34.3835C28.1866 34.2887 27.5937 34.4113 27.0946 34.7289L25.5307 35.724C25.2034 35.9322 24.7966 35.9322 24.4694 35.724L22.9052 34.7288C22.5161 34.4812 22.0702 34.3522 21.6189 34.3522C21.4913 34.3522 21.3631 34.3625 21.236 34.3834L19.4291 34.68C19.0491 34.7425 18.6726 34.5794 18.4464 34.255L17.3711 32.7123C17.0268 32.2185 16.5239 31.8673 15.9551 31.7237L14.1762 31.2745C13.8033 31.1802 13.5155 30.8801 13.4252 30.4908L12.9948 28.6346C12.8571 28.041 12.5207 27.5161 12.0473 27.1569L10.5693 26.035C10.2583 25.7989 10.1022 25.4059 10.1621 25.0094L10.4463 23.1247C10.5372 22.5221 10.4197 21.9036 10.1154 21.3828L9.16166 19.7507C8.96211 19.4092 8.96211 18.9848 9.16166 18.6433L10.1155 17.011C10.4197 16.4903 10.5373 15.8718 10.4465 15.2693L10.1622 13.384C10.1025 12.9875 10.2587 12.5946 10.5696 12.3586L12.0481 11.2365C12.5213 10.8772 12.8578 10.3525 12.9955 9.75898L13.426 7.90273C13.5163 7.51357 13.804 7.21329 14.177 7.11907L15.9559 6.66991C16.5248 6.52629 17.0278 6.1751 17.372 5.68122L18.447 4.13894C18.6733 3.81438 19.0497 3.65135 19.4298 3.71388L21.2361 4.0105C21.8136 4.10547 22.4064 3.98266 22.9054 3.66513L24.4694 2.66997C24.7967 2.46184 25.2035 2.46184 25.5306 2.66997L27.0949 3.66522C27.5939 3.98285 28.1868 4.10556 28.7641 4.01069L30.5709 3.71406C30.9508 3.65191 31.3274 3.81466 31.5536 4.13913L32.629 5.68179C32.9733 6.17557 33.4761 6.52676 34.0449 6.67038L35.8238 7.11963C36.1968 7.21385 36.4845 7.51404 36.5748 7.90329L37.0053 9.75945C37.1429 10.3531 37.4794 10.878 37.9528 11.2372L39.4308 12.359C39.7418 12.5951 39.8979 12.9881 39.8381 13.3846L39.5538 15.2693C39.463 15.8719 39.5805 16.4904 39.8848 17.0112L40.8385 18.6433C41.0381 18.9848 41.0381 19.4093 40.8385 19.7508Z" fill="white"/>
<path d="M33.4829 16.8435C33.3231 16.3303 32.9049 15.972 32.3913 15.9084L28.0293 15.3687L26.1895 11.2067C25.9729 10.7167 25.5171 10.4123 25 10.4123C24.4829 10.4123 24.0271 10.7167 23.8104 11.2067L21.9706 15.3688L17.6086 15.9085C17.0951 15.9721 16.6767 16.3304 16.5171 16.8436C16.3573 17.3565 16.4939 17.903 16.8734 18.2693L20.0984 21.3813L19.2423 25.877C19.1416 26.4063 19.3389 26.9321 19.7573 27.2491C19.9881 27.4241 20.2559 27.5126 20.5255 27.5126C20.7446 27.5126 20.9647 27.4541 21.167 27.336L24.9999 25.0974L28.8328 27.336C29.2841 27.5996 29.8241 27.5664 30.2425 27.2492C30.661 26.9321 30.8582 26.4062 30.7574 25.877L29.9014 21.3814L33.1264 18.2694C33.506 17.9031 33.6426 17.3567 33.4829 16.8435ZM28.6192 20.5582C28.4342 20.7368 28.3513 21.0029 28.4004 21.2609L29.2764 25.8613L25.354 23.5704C25.244 23.5061 25.122 23.474 24.9999 23.474C24.8778 23.474 24.7559 23.506 24.6458 23.5704L20.7234 25.8613L21.5994 21.2609C21.6486 21.0028 21.5657 20.7368 21.3805 20.5582L18.0804 17.3735L22.5444 16.8212C22.7947 16.7903 23.0116 16.6257 23.1173 16.3869L25 12.1278L26.8827 16.3869C26.9883 16.6257 27.2052 16.7903 27.4556 16.8212L31.9194 17.3735L28.6192 20.5582Z" fill="white"/>
</g>
<defs>
<clipPath id="clip0_556_25">
<rect width="46" height="48" fill="white" transform="translate(2 1)"/>
</clipPath>
</defs>
</svg>
