<svg width="50" height="50" viewBox="0 0 50 50" fill="none" xmlns="http://www.w3.org/2000/svg">
<path d="M29.5357 33.2018H26.9044C26.5161 33.2018 26.2013 33.51 26.2013 33.8903C26.2013 34.2706 26.5161 34.5787 26.9044 34.5787H29.5357C29.924 34.5787 30.2388 34.2706 30.2388 33.8903C30.2388 33.51 29.924 33.2018 29.5357 33.2018Z" fill="white"/>
<path d="M45.0234 25.8312L41.1946 24.3851L39.2424 22.4736C39.1171 22.3509 38.9555 22.2844 38.7905 22.2741V20.7531C39.7106 19.7925 40.3655 18.5761 40.6298 17.2057C40.7939 17.213 40.9595 17.2001 41.123 17.1674C42.0585 16.9798 42.7375 16.1299 42.7375 15.1466V14.6445C42.7375 14.0756 42.5019 13.5535 42.1183 13.1802C42.7392 9.87362 42.2278 7.179 40.6327 5.37546C39.0899 3.63104 36.6042 2.79724 33.4447 2.96459C30.5257 3.11909 28.6413 4.43417 28.0443 4.91528C27.7175 4.95329 27.1608 5.06565 26.5974 5.39667C25.8164 5.85547 24.8856 6.81925 24.8856 8.8051C24.8856 10.5375 25.1683 11.9839 25.3731 12.8044C24.6868 13.1318 24.2277 13.8412 24.2277 14.6522V15.1465C24.2277 16.1298 24.9068 16.9797 25.8423 17.1673C26.0057 17.2001 26.1715 17.2129 26.3354 17.2057C26.5997 18.576 27.2547 19.7924 28.1747 20.753V22.274C28.0097 22.2843 27.8481 22.3508 27.7228 22.4735L25.7707 24.385L21.9418 25.8311C21.6106 25.9561 21.2942 26.1183 21.0015 26.313C20.6803 26.5268 20.5969 26.9549 20.815 27.2694C20.9511 27.4655 21.1722 27.571 21.3972 27.571C21.5333 27.571 21.6707 27.5324 21.7917 27.452C21.9958 27.3162 22.2166 27.2031 22.4479 27.1157L26.0013 25.7736L28.7182 29.7642C29.0549 30.2589 29.5948 30.5762 30.199 30.6348C30.2662 30.6413 30.3334 30.6445 30.4002 30.6445C30.7499 30.6445 31.0893 30.5544 31.3897 30.388L30.8067 43.3377C30.7895 43.7175 31.0902 44.0391 31.4782 44.0558C31.4887 44.0563 31.4992 44.0564 31.5097 44.0564C31.8838 44.0564 32.195 43.7677 32.2116 43.3983L32.7527 31.3782H34.2124L34.7536 43.3983C34.7701 43.7678 35.0814 44.0564 35.4555 44.0564C35.466 44.0564 35.4765 44.0563 35.487 44.0558C35.8749 44.0391 36.1756 43.7175 36.1585 43.3377L35.5755 30.388C35.8758 30.5544 36.2151 30.6445 36.565 30.6445C36.6317 30.6445 36.699 30.6413 36.7662 30.6348C37.3704 30.5762 37.9101 30.2589 38.247 29.7642L40.9639 25.7736L44.5173 27.1157C45.0156 27.3039 45.4446 27.6042 45.782 27.9788L43.3509 30.3592C42.4726 31.2192 41.9889 32.3627 41.9889 33.5788V43.3681C41.9889 43.7483 42.3037 44.0565 42.692 44.0565C43.0804 44.0565 43.3952 43.7483 43.3952 43.3681V33.5788C43.3952 32.7305 43.7326 31.9328 44.3452 31.3329L46.4788 29.2438C46.5645 29.5516 46.6045 29.8751 46.591 30.206L46.0464 43.3402C46.0307 43.7201 46.3325 44.0406 46.7204 44.0561C46.7302 44.0564 46.7398 44.0566 46.7495 44.0566C47.1246 44.0566 47.4362 43.7665 47.4515 43.3962L47.9963 30.2616C48.076 28.3133 46.8814 26.5329 45.0234 25.8312ZM27.7119 16.9218C27.5878 16.2608 26.9627 15.7803 26.288 15.8292C26.2347 15.833 26.1797 15.8293 26.1244 15.8183C25.8448 15.7623 25.634 15.4734 25.634 15.1466V14.6521C25.634 14.3328 25.852 14.0451 26.1301 13.9972C26.3649 13.9569 26.5897 14.0412 26.7319 14.2229C26.861 14.3877 27.0332 14.5055 27.2298 14.5635C27.5178 14.6487 27.8353 14.5987 28.0795 14.43C28.5192 14.126 28.9071 13.7547 29.2325 13.3262C29.4643 13.0211 29.3994 12.5898 29.0879 12.363C28.7761 12.1361 28.3358 12.1995 28.104 12.5046C27.9418 12.7183 27.7584 12.9123 27.5565 13.084C27.3336 12.8972 27.0732 12.7623 26.7941 12.6853C26.6134 12.0076 26.2918 10.5559 26.2918 8.80492C26.2918 7.75044 26.6238 7.00955 27.2785 6.60288C27.7893 6.28554 28.33 6.27287 28.3296 6.27278C28.5093 6.27278 28.6843 6.20347 28.8148 6.08258C28.8319 6.06679 30.5604 4.49614 33.5205 4.33944C36.23 4.19623 38.3218 4.86599 39.5695 6.27673C40.8271 7.69867 41.2459 9.8817 40.7915 12.614C40.6032 12.6075 40.397 12.6215 40.1918 12.655L39.5313 11.1016C39.3964 10.7847 39.0434 10.6136 38.7042 10.7002C38.6388 10.7169 32.1456 12.3286 29.423 9.00963C29.1799 8.71321 28.7374 8.66585 28.4345 8.90397C28.1318 9.14209 28.0834 9.57537 28.3267 9.87188C31.1069 13.2612 36.6236 12.5239 38.46 12.1643L38.9708 13.3655C39.1905 13.8819 39.7524 14.1639 40.3063 14.036C40.5336 13.9836 40.7509 13.9824 40.8324 13.9982C41.1168 14.0536 41.3312 14.3313 41.3312 14.6443V15.1465C41.3312 15.4734 41.1203 15.7622 40.8408 15.8182C40.7855 15.8293 40.7303 15.833 40.6772 15.8292C40.0025 15.7811 39.3774 16.2606 39.2533 16.9218C38.7418 19.6486 36.3149 21.6277 33.4826 21.6277C30.6503 21.6277 28.2234 19.6486 27.7119 16.9218ZM30.831 29.0919C30.6527 29.2665 30.4454 29.2751 30.3376 29.2646C30.2299 29.2542 30.0283 29.2059 29.8884 29.0005L27.1513 24.9805L28.2521 23.9027L32.454 27.5028L30.831 29.0919ZM32.8147 30.0014L32.8573 29.0551L33.4825 28.4429L34.1077 29.0551L34.1503 30.0014H32.8147ZM33.4826 26.5544L29.581 23.2116V21.8939C30.7154 22.6003 32.0575 23.0047 33.4826 23.0047C34.9077 23.0047 36.2499 22.6003 37.3843 21.8939V23.2116L33.4826 26.5544ZM37.077 29.0005C36.937 29.206 36.7353 29.2542 36.6277 29.2646C36.5198 29.2751 36.3125 29.2665 36.1342 29.0918L34.5113 27.5027L38.7132 23.9026L39.8139 24.9804L37.077 29.0005Z" fill="white"/>
<path d="M22.298 29.4393L18.8647 27.9719L16.9879 26.1342C16.8622 26.011 16.7006 25.9449 16.536 25.9347V24.8515C18.14 23.8195 19.3138 22.178 19.6909 20.2221C19.8756 20.2302 20.0621 20.2128 20.2458 20.1703C21.1455 19.9619 21.7985 19.1176 21.7985 18.1629V17.661C21.7985 16.9635 21.4451 16.3361 20.8975 15.968C21.0585 15.3432 21.1407 14.704 21.1407 14.0606C21.1407 11.2083 19.566 8.69596 17.1926 7.25346C17.1672 4.87288 15.0921 2.9433 12.5437 2.9433C9.99525 2.9433 7.92009 4.87288 7.89478 7.25346C5.5214 8.69596 3.94676 11.2084 3.94676 14.0606C3.94676 14.7021 4.02833 15.3394 4.18845 15.9624C3.64114 16.3287 3.28892 16.9591 3.28892 17.6685V18.1629C3.28892 19.1176 3.94189 19.9619 4.84161 20.1703C5.02536 20.2129 5.21174 20.2302 5.39652 20.2221C5.77368 22.178 6.94753 23.8195 8.5515 24.8515V25.9347C8.38697 25.9449 8.22534 26.011 8.09962 26.1342L6.22284 27.9719L2.7896 29.4393C1.04275 30.186 -0.0766251 31.9404 0.00409394 33.8051L0.419314 43.3973C0.435346 43.7672 0.74669 44.0566 1.12132 44.0566C1.13135 44.0566 1.14147 44.0564 1.1516 44.056C1.53963 44.0399 1.84076 43.7189 1.82435 43.339L1.40904 33.7467C1.38232 33.1286 1.54638 32.5289 1.85482 32.0127L3.70029 34.1812C4.28352 34.8664 4.60461 35.735 4.60461 36.6269V43.3682C4.60461 43.7484 4.91942 44.0566 5.30774 44.0566C5.69605 44.0566 6.01087 43.7484 6.01087 43.3682V36.6269C6.01087 35.4136 5.57389 34.2319 4.78058 33.2997L2.81867 30.9944C2.98545 30.8819 3.16273 30.7822 3.3522 30.7012L6.34434 29.4223L8.45878 32.7829C8.66756 33.1148 9.01275 33.3398 9.40594 33.4003C9.47663 33.4113 9.5475 33.4166 9.6181 33.4166C9.93957 33.4166 10.2527 33.3051 10.5009 33.0976L11.8408 31.9781V43.3681C11.8408 43.7483 12.1556 44.0565 12.544 44.0565C12.9323 44.0565 13.2471 43.7483 13.2471 43.3681V31.9783L14.5869 33.0978C14.8351 33.3052 15.1482 33.4168 15.4697 33.4168C15.5402 33.4168 15.6112 33.4114 15.6819 33.4005C16.0751 33.3399 16.4202 33.115 16.629 32.7831L18.7435 29.4224L21.7356 30.7013C21.925 30.7823 22.1024 30.882 22.2691 30.9945L20.3072 33.2998C19.5139 34.2319 19.0769 35.4136 19.0769 36.627V43.3682C19.0769 43.7485 19.3918 44.0567 19.7801 44.0567C20.1684 44.0567 20.4832 43.7485 20.4832 43.3682V36.627C20.4832 35.7351 20.8044 34.8665 21.3875 34.1813L23.233 32.0128C23.5414 32.529 23.7055 33.1287 23.6788 33.7468L23.2636 43.3391C23.2471 43.7189 23.5483 44.0399 23.9363 44.0561C23.9464 44.0565 23.9565 44.0567 23.9666 44.0567C24.3412 44.0567 24.6526 43.7674 24.6686 43.3973L25.0838 33.8052C25.1644 31.9405 24.045 30.186 22.298 29.4393ZM12.5439 4.32026C14.0397 4.32026 15.3018 5.25466 15.675 6.52073C14.7043 6.16199 13.6481 5.96471 12.5439 5.96471C11.4396 5.96471 10.3834 6.16199 9.41269 6.52073C9.78591 5.25466 11.0479 4.32026 12.5439 4.32026ZM6.77306 19.9384C6.64912 19.2772 6.02296 18.7969 5.34927 18.8457C5.28955 18.8498 5.22786 18.8449 5.16561 18.8304C4.89749 18.7682 4.69527 18.4813 4.69527 18.1629V17.6685C4.69527 17.3491 4.91324 17.0614 5.19139 17.0136C5.42614 16.9732 5.65086 17.0577 5.79299 17.2392C5.92208 17.404 6.0943 17.5219 6.29109 17.5801C6.57899 17.6653 6.89671 17.6153 7.14065 17.4464C7.57368 17.1472 7.95656 16.7824 8.27869 16.3623C8.51184 16.0583 8.44912 15.6267 8.13862 15.3984C7.82803 15.1701 7.38731 15.2316 7.15415 15.5356C6.99468 15.7435 6.81515 15.9325 6.61771 16.1004C6.31687 15.8485 5.94796 15.6908 5.55664 15.643C5.42193 15.1244 5.35302 14.5941 5.35302 14.0607C5.35302 10.3559 8.57878 7.34176 12.5439 7.34176C16.5088 7.34176 19.7346 10.3558 19.7346 14.0607C19.7346 14.5931 19.6661 15.1223 19.5318 15.64C19.3468 15.6544 19.1587 15.684 18.9846 15.7283L18.456 15.3027C18.1904 15.0888 17.8561 14.9818 17.5178 15.0015C16.4843 15.0613 11.1913 15.1981 8.47575 12.0159C8.22675 11.7242 7.7834 11.6852 7.48537 11.9291C7.18734 12.1729 7.14768 12.6071 7.39668 12.8988C8.736 14.4683 10.7003 15.5295 13.2351 16.0531C15.1758 16.454 16.901 16.4151 17.5769 16.3774L18.4016 17.0413C18.6285 17.2241 18.9468 17.2499 19.201 17.105C19.3202 17.0414 19.7196 16.9807 19.8939 17.0147C20.1782 17.0701 20.3925 17.3479 20.3925 17.661V18.1629C20.3925 18.4814 20.1903 18.7683 19.9222 18.8304C19.86 18.8448 19.7983 18.85 19.7385 18.8456C19.0652 18.7977 18.4387 19.2772 18.3147 19.9383C17.8032 22.6651 15.3762 24.6443 12.544 24.6443C9.71157 24.6443 7.28456 22.6651 6.77306 19.9384ZM9.62832 32.0167L7.5135 28.6554L8.59687 27.5946L11.5086 30.4457L9.62832 32.0167ZM12.5439 29.512L9.95785 26.9799V25.5555C10.7651 25.8564 11.6375 26.0212 12.5439 26.0212C13.4502 26.0212 14.3226 25.8564 15.1299 25.5556V26.9799L12.5439 29.512ZM15.4594 32.0167L13.5791 30.4457L16.4908 27.5946L17.5742 28.6554L15.4594 32.0167Z" fill="white"/>
<path d="M9.91266 36.2384H7.93921C7.5509 36.2384 7.23608 36.5467 7.23608 36.9269C7.23608 37.3071 7.5509 37.6154 7.93921 37.6154H9.91266C10.301 37.6154 10.6158 37.3071 10.6158 36.9269C10.6158 36.5467 10.301 36.2384 9.91266 36.2384Z" fill="white"/>
</svg>
