<svg width="50" height="50" viewBox="0 0 50 50" fill="none" xmlns="http://www.w3.org/2000/svg">
<path d="M44.2148 4.29688H39.653V2.92969C39.653 1.31426 38.365 0 36.7819 0C35.1987 0 33.9108 1.31426 33.9108 2.92969V4.29688H17.8326V2.92969C17.8326 1.31426 16.5447 0 14.9616 0C13.3784 0 12.0905 1.31426 12.0905 2.92969V4.33301C12.0091 4.31006 11.9238 4.29688 11.8353 4.29688H8.02212C5.38359 4.29688 3.23697 6.4873 3.23697 9.17969V25.8138C3.23697 26.3531 3.66553 26.7903 4.194 26.7903C4.72247 26.7903 5.15103 26.3531 5.15103 25.8138V14.3555H39.653C40.1814 14.3555 40.61 13.9183 40.61 13.3789C40.61 12.8396 40.1814 12.4023 39.653 12.4023H5.15103V9.17969C5.15103 7.56426 6.439 6.25 8.02212 6.25H11.8353C11.9238 6.25 12.0091 6.23672 12.0905 6.21387V7.4707C12.0905 9.08613 13.3784 10.4004 14.9616 10.4004C16.5447 10.4004 17.8326 9.08613 17.8326 7.4707V6.25H33.9108V7.4707C33.9108 9.08613 35.1987 10.4004 36.7819 10.4004C38.365 10.4004 39.653 9.08613 39.653 7.4707V6.25H44.2148C45.798 6.25 47.0859 7.56426 47.0859 9.17969V46.2885C47.0859 47.258 46.3129 48.0469 45.3627 48.0469C44.4125 48.0469 43.6395 47.258 43.6395 46.2885V43.7622C43.6395 43.2229 43.2109 42.7856 42.6824 42.7856H31.5502C31.0217 42.7856 30.5931 43.2229 30.5931 43.7622C30.5931 44.3016 31.0217 44.7388 31.5502 44.7388H41.7254V46.2885C41.7254 46.9243 41.8831 47.5231 42.1604 48.0469H3.63672C2.68687 48.0469 1.91406 47.2583 1.91406 46.2891V44.7388H23.3348C23.8633 44.7388 24.2918 44.3016 24.2918 43.7622C24.2918 43.2229 23.8633 42.7856 23.3348 42.7856H13.7725C15.4449 41.316 16.5068 39.1422 16.5068 36.7188C16.5068 32.3032 12.9863 28.7109 8.65912 28.7109C4.33191 28.7109 0.811467 32.3032 0.811467 36.7188C0.811467 39.1422 1.87339 41.316 3.54571 42.7856H0.957031C0.428559 42.7856 0 43.2229 0 43.7622V46.2891C0 48.3353 1.63145 50 3.63672 50H45.3627C47.3683 50 49 48.3351 49 46.2885V9.17969C49 6.4873 46.8534 4.29688 44.2148 4.29688ZM15.9186 7.4707C15.9186 8.00918 15.4893 8.44727 14.9616 8.44727C14.4338 8.44727 14.0045 8.00918 14.0045 7.4707V2.92969C14.0045 2.39121 14.4338 1.95312 14.9616 1.95312C15.4893 1.95312 15.9186 2.39121 15.9186 2.92969V7.4707ZM37.7389 7.4707C37.7389 8.00918 37.3096 8.44727 36.7819 8.44727C36.2542 8.44727 35.8248 8.00918 35.8248 7.4707V2.92969C35.8248 2.39121 36.2542 1.95312 36.7819 1.95312C37.3096 1.95312 37.7389 2.39121 37.7389 2.92969V7.4707ZM2.72553 36.7188C2.72553 33.3802 5.38732 30.6641 8.65912 30.6641C11.9309 30.6641 14.5927 33.3802 14.5927 36.7188C14.5927 40.0573 11.9309 42.7734 8.65912 42.7734C5.38732 42.7734 2.72553 40.0573 2.72553 36.7188Z" fill="white"/>
<path d="M44.8186 12.6885C44.6407 12.5068 44.3938 12.4023 44.1421 12.4023C43.8903 12.4023 43.6435 12.5068 43.4655 12.6885C43.2875 12.8701 43.1851 13.1221 43.1851 13.3789C43.1851 13.6357 43.2874 13.8877 43.4655 14.0693C43.6436 14.251 43.8903 14.3555 44.1421 14.3555C44.3938 14.3555 44.6407 14.251 44.8186 14.0693C44.9966 13.8877 45.0991 13.6357 45.0991 13.3789C45.0991 13.1221 44.9967 12.8701 44.8186 12.6885Z" fill="white"/>
<path d="M28.5816 43.0713C28.4036 42.8896 28.1567 42.7861 27.905 42.7861C27.6533 42.7861 27.4064 42.8896 27.2284 43.0713C27.0504 43.2539 26.948 43.5049 26.948 43.7617C26.948 44.0195 27.0503 44.2705 27.2284 44.4531C27.4064 44.6348 27.6533 44.7383 27.905 44.7383C28.1567 44.7383 28.4036 44.6348 28.5816 44.4531C28.7596 44.2705 28.8621 44.0186 28.8621 43.7617C28.8621 43.5049 28.7597 43.2539 28.5816 43.0713Z" fill="white"/>
<path d="M21.6523 29.6875C19.6471 29.6875 18.0156 31.3522 18.0156 33.3984C18.0156 35.4446 19.6471 37.1094 21.6523 37.1094C23.6576 37.1094 25.2891 35.4446 25.2891 33.3984C25.2891 31.3522 23.6576 29.6875 21.6523 29.6875ZM21.6523 35.1562C20.7025 35.1562 19.9297 34.3677 19.9297 33.3984C19.9297 32.4292 20.7025 31.6406 21.6523 31.6406C22.6022 31.6406 23.375 32.4292 23.375 33.3984C23.375 34.3677 22.6022 35.1562 21.6523 35.1562Z" fill="white"/>
<path d="M30.5847 29.6875C28.5794 29.6875 26.948 31.3522 26.948 33.3984C26.948 35.4446 28.5794 37.1094 30.5847 37.1094C32.59 37.1094 34.2214 35.4446 34.2214 33.3984C34.2214 31.3522 32.59 29.6875 30.5847 29.6875ZM30.5847 35.1562C29.6349 35.1562 28.8621 34.3677 28.8621 33.3984C28.8621 32.4292 29.6349 31.6406 30.5847 31.6406C31.5346 31.6406 32.3074 32.4292 32.3074 33.3984C32.3074 34.3677 31.5346 35.1562 30.5847 35.1562Z" fill="white"/>
<path d="M39.5171 29.6875C37.5118 29.6875 35.8804 31.3522 35.8804 33.3984C35.8804 35.4446 37.5118 37.1094 39.5171 37.1094C41.5224 37.1094 43.1538 35.4446 43.1538 33.3984C43.1538 31.3522 41.5224 29.6875 39.5171 29.6875ZM39.5171 35.1562C38.5672 35.1562 37.7944 34.3677 37.7944 33.3984C37.7944 32.4292 38.5672 31.6406 39.5171 31.6406C40.4669 31.6406 41.2397 32.4292 41.2397 33.3984C41.2397 34.3677 40.4669 35.1562 39.5171 35.1562Z" fill="white"/>
<path d="M12.7202 19.5312C10.7149 19.5312 9.0835 21.196 9.0835 23.2422C9.0835 25.2884 10.7149 26.9531 12.7202 26.9531C14.7255 26.9531 16.3569 25.2884 16.3569 23.2422C16.3569 21.196 14.7255 19.5312 12.7202 19.5312ZM12.7202 25C11.7704 25 10.9976 24.2114 10.9976 23.2422C10.9976 22.2729 11.7704 21.4844 12.7202 21.4844C13.6701 21.4844 14.4429 22.2729 14.4429 23.2422C14.4429 24.2114 13.6701 25 12.7202 25Z" fill="white"/>
<path d="M30.5847 19.5312C28.5794 19.5312 26.948 21.196 26.948 23.2422C26.948 25.2884 28.5794 26.9531 30.5847 26.9531C32.59 26.9531 34.2214 25.2884 34.2214 23.2422C34.2214 21.196 32.59 19.5312 30.5847 19.5312ZM30.5847 25C29.6349 25 28.8621 24.2114 28.8621 23.2422C28.8621 22.2729 29.6349 21.4844 30.5847 21.4844C31.5346 21.4844 32.3074 22.2729 32.3074 23.2422C32.3074 24.2114 31.5346 25 30.5847 25Z" fill="white"/>
<path d="M39.5171 19.5312C37.5118 19.5312 35.8804 21.196 35.8804 23.2422C35.8804 25.2884 37.5118 26.9531 39.5171 26.9531C41.5224 26.9531 43.1538 25.2884 43.1538 23.2422C43.1538 21.196 41.5224 19.5312 39.5171 19.5312ZM39.5171 25C38.5672 25 37.7944 24.2114 37.7944 23.2422C37.7944 22.2729 38.5672 21.4844 39.5171 21.4844C40.4669 21.4844 41.2397 22.2729 41.2397 23.2422C41.2397 24.2114 40.4669 25 39.5171 25Z" fill="white"/>
<path d="M21.6523 19.5312C19.6471 19.5312 18.0156 21.196 18.0156 23.2422C18.0156 25.2884 19.6471 26.9531 21.6523 26.9531C23.6576 26.9531 25.2891 25.2884 25.2891 23.2422C25.2891 21.196 23.6576 19.5312 21.6523 19.5312ZM21.6523 25C20.7025 25 19.9297 24.2114 19.9297 23.2422C19.9297 22.2729 20.7025 21.4844 21.6523 21.4844C22.6022 21.4844 23.375 22.2729 23.375 23.2422C23.375 24.2114 22.6022 25 21.6523 25Z" fill="white"/>
<path d="M12.0685 34.3388C11.6947 33.9574 11.0889 33.9574 10.715 34.3388L7.59831 37.5191L6.53323 36.4323C6.15942 36.051 5.55362 36.051 5.1797 36.4323C4.80598 36.8137 4.80598 37.432 5.1797 37.8135L6.9216 39.5907C7.10113 39.7738 7.34451 39.8768 7.59831 39.8768C7.85212 39.8768 8.09549 39.7738 8.27503 39.5907L12.0685 35.7198C12.4422 35.3385 12.4422 34.7201 12.0685 34.3388Z" fill="white"/>
</svg>
